<?xml version="1.0" standalone="no"?>
<!DOCTYPE svg PUBLIC "-//W3C//DTD SVG 20010904//EN"
 "http://www.w3.org/TR/2001/REC-SVG-20010904/DTD/svg10.dtd">
<svg version="1.0" xmlns="http://www.w3.org/2000/svg"
 width="314.000000pt" height="314.000000pt" viewBox="0 0 314.000000 314.000000"
 preserveAspectRatio="xMidYMid meet">
<metadata>
Created by potrace 1.11, written by Peter Selinger 2001-2013
</metadata>
<g transform="translate(0.000000,314.000000) scale(0.100000,-0.100000)"
fill="#000000" stroke="none">
<path d="M0 1570 l0 -1570 1570 0 1570 0 0 1570 0 1570 -1570 0 -1570 0 0
-1570z m1760 1370 c90 -11 278 -58 345 -86 194 -80 341 -178 486 -324 420
-424 515 -1042 241 -1574 -174 -338 -508 -602 -887 -701 -254 -66 -559 -58
-802 21 -93 30 -256 107 -334 157 -305 196 -523 506 -604 859 -8 36 -19 119
-25 184 -40 495 202 978 627 1250 170 109 417 197 613 217 78 8 261 6 340 -3z"/>
<path d="M1460 2860 c-515 -45 -959 -388 -1129 -872 -47 -136 -65 -244 -65
-403 1 -163 19 -281 65 -411 70 -199 152 -328 309 -485 186 -186 369 -290 625
-355 122 -32 373 -44 507 -25 309 44 619 212 816 443 82 95 129 169 188 292
228 476 130 1047 -244 1423 -283 284 -675 428 -1072 393z m-710 -715 l0 -95
130 0 130 0 0 96 c0 86 2 95 18 92 15 -3 17 -22 20 -206 2 -197 2 -202 -18
-202 -19 0 -20 6 -20 90 l0 90 -131 0 -130 0 3 -87 c2 -84 2 -88 -20 -91 l-22
-3 0 199 c0 109 3 202 7 205 3 4 12 7 20 7 10 0 13 -22 13 -95z m668 73 c3
-16 -10 -18 -119 -20 l-123 -3 -1 -72 0 -73 108 0 c100 0 107 -1 107 -20 0
-18 -8 -20 -106 -22 l-106 -3 -1 -70 -2 -70 123 -3 c99 -2 122 -5 122 -17 0
-13 -23 -15 -139 -15 l-138 0 -5 28 c-3 21 -3 368 1 380 1 1 63 1 138 0 121
-3 138 -5 141 -20z m293 -1 c19 -12 44 -42 57 -67 20 -39 22 -59 22 -180 0
-75 -3 -139 -6 -143 -3 -3 -12 -3 -20 0 -10 4 -14 24 -14 74 l0 69 -120 0
-120 0 0 -70 c0 -64 -2 -70 -21 -70 -20 0 -20 4 -17 154 3 138 5 158 24 183
55 74 147 96 215 50z m394 4 c36 -15 91 -66 111 -103 19 -37 20 -137 1 -174
-8 -16 -28 -41 -44 -55 -53 -50 -84 -59 -198 -59 l-105 0 0 198 c0 109 3 202
7 205 10 11 195 1 228 -12z m399 -5 c21 -13 25 -20 16 -31 -9 -11 -17 -11 -45
1 -68 28 -150 11 -162 -33 -11 -47 9 -66 100 -96 101 -33 127 -58 127 -121 0
-50 -21 -83 -66 -102 -55 -23 -125 -15 -189 23 -16 9 -17 14 -6 27 11 14 16
13 49 -4 78 -42 175 -12 175 55 0 37 -27 58 -111 86 -85 28 -122 63 -122 116
0 42 23 73 70 92 36 16 133 8 164 -13z m-1704 -819 c0 -285 3 -353 16 -398 36
-124 128 -196 274 -214 65 -8 168 9 219 35 51 26 106 87 133 145 22 49 23 59
26 413 l3 362 45 0 46 0 -4 -367 c-4 -356 -4 -370 -27 -426 -63 -159 -204
-247 -394 -247 -223 0 -381 118 -417 312 -6 28 -10 203 -10 389 l0 339 45 0
45 0 0 -343z m1543 311 c88 -41 152 -113 178 -200 50 -164 -22 -322 -179 -396
-55 -26 -64 -27 -264 -30 l-208 -4 -2 -181 -3 -182 -42 -3 -43 -3 0 516 0 516
253 -3 c250 -3 252 -3 310 -30z"/>
<path d="M1564 2181 c-36 -22 -54 -65 -54 -127 l0 -44 120 0 120 0 0 45 c0
114 -98 180 -186 126z"/>
<path d="M1915 2188 c-3 -7 -4 -83 -3 -168 l3 -153 80 2 c133 4 195 56 195
162 0 64 -31 119 -82 145 -44 23 -186 32 -193 12z"/>
<path d="M1870 1410 l0 -250 180 0 c156 0 186 3 234 21 109 40 178 154 161
267 -9 60 -24 88 -72 134 -72 70 -104 78 -315 78 l-188 0 0 -250z"/>
</g>
</svg>
